<svg width="24" height="30" viewBox="0 0 24 30" fill="none" xmlns="http://www.w3.org/2000/svg">
<g clip-path="url(#clip0_9179_1436)">
<path fill-rule="evenodd" clip-rule="evenodd" d="M23.0821 0H22.9045C3.7423 1.79673 1.34532 14.5236 7.60752 18.6411C6.50805 23.3031 7.60752 23.3031 7.60752 23.3031C7.75093 21.9147 7.99677 20.5331 8.34505 19.1788C10.742 10.0386 16.8199 2.15744 22.9045 0.183757C23.0274 0.183757 23.0889 0.122505 23.0889 0" fill="#C5203F"/>
<path fill-rule="evenodd" clip-rule="evenodd" d="M21.8801 3.17155V2.98779L21.6958 3.17155C20.2275 6.21375 19.6471 10.5082 18.5681 13.7342C17.0998 17.491 14.7097 20.1793 10.8513 19.8186V29.1289C10.8513 29.1289 0.737533 24.6575 0.737533 17.491V4.06311L9.00746 3.3485C9.13038 3.3485 9.19184 3.28952 9.19184 3.17155H0V17.4637C0 25.5218 10.8513 30 10.8513 30C10.8513 30 21.8801 25.3721 21.8801 17.491V3.17155Z" fill="#C5203F"/>
</g>
<defs>
<clipPath id="clip0_9179_1436">
<rect width="23.1818" height="30" fill="white"/>
</clipPath>
</defs>
</svg>
